<?xml version="1.0" standalone="no"?>
<!DOCTYPE svg PUBLIC "-//W3C//DTD SVG 1.1//EN" "http://www.w3.org/Graphics/SVG/1.1/DTD/svg11.dtd" >
<!--
2013-9-30: Created.
-->
<svg>
<metadata>
Created by iconfont
</metadata>
<defs>

<font id="iconfont" horiz-adv-x="1024" >
  <font-face
    font-family="iconfont"
    font-weight="500"
    font-stretch="normal"
    units-per-em="1024"
    ascent="896"
    descent="-128"
  />
    <missing-glyph />
    
    <glyph glyph-name="zhitongche" unicode="&#58886;" d="M1089.477486 382.976q17.408-8.192 15.36-14.336t-15.36-7.168q-4.096-1.024-35.84-3.072t-77.312-5.632-97.792-7.168-96.768-7.168-75.264-5.632-32.768-2.048q-3.072 40.96 11.264 70.656 6.144 12.288 16.896 24.064t27.136 19.968 39.936 11.264 56.32 0q64.512-7.168 110.592-17.92t77.312-21.504 49.664-20.48 26.624-13.824zM631.749486 282.624q7.168 4.096 38.4 8.192t74.752 8.192 93.696 7.68 96.768 6.144 83.456 4.096 53.248 2.56l68.608 26.624-111.616-99.328 0 49.152-20.48-20.48-4.096-43.008-28.672-21.504-2.048 51.2-15.36-10.24-9.216-55.296-148.48-74.752-6.144 53.248-22.528-11.264-5.12-57.344-217.088-102.4 3.072 84.992-14.336-92.16q-83.968-40.96-150.528-59.392t-118.272-22.528-89.6 3.072-64 18.944-40.96 24.064-20.992 18.432q-2.048 19.456-3.072 43.008t-2.048 44.032q-1.024 23.552-1.024 47.104 15.36-20.48 41.472-33.792t56.832-21.504 62.976-11.264 60.416-3.584 49.664 1.536 30.72 4.096q17.408 4.096 48.128 13.824t62.464 19.968l59.392 20.48q25.6 8.192 33.792 11.264l517.12 204.8q-14.336-2.048-42.496-5.632t-65.024-8.704-78.848-11.776-82.944-12.8q-97.28-15.36-211.968-32.768-8.192 2.048-2.56 19.456t15.872 36.864q11.264 22.528 29.696 50.176-10.24-34.816-11.264-50.176t1.024-20.48q3.072-5.12 9.216-1.024zM1138.629486 413.696q6.144-6.144 7.68-13.312t-1.536-12.288-9.216-6.144-14.336 5.12q-5.12 4.096-33.28 29.184t-67.584 60.928-84.992 76.8-85.504 75.776-69.12 57.856-35.328 24.064q-8.192 0-24.576-22.016t-40.96-59.392-55.808-86.016-68.096-101.376-77.824-105.472-84.992-97.792-90.112-69.632-90.112-32.256-82.944-1.024-68.096 23.04-46.08 40.448-15.872 50.688q1.024 30.72 13.312 77.312t35.328 101.888 56.32 114.176 75.264 114.688 91.648 102.912 105.984 78.848q73.728 39.936 134.144 49.664t108.544 2.56 83.456-24.576 58.88-32.768q16.384-11.264 49.664-45.568t73.728-79.872 82.944-95.744 78.848-93.184 61.44-73.216 29.184-34.304zM73.669486 314.368q7.168 2.048 18.432 11.776t21.504 20.992 17.92 22.528 7.68 17.408-6.656 13.824-14.848 15.872q-10.24 9.216-21.504 18.432-11.264-17.408-19.456-38.912t-11.264-40.448-1.536-31.232 9.728-10.24zM310.213486 248.832q8.192 2.048 20.48 12.288t23.04 22.528 18.944 24.576 8.192 18.432-7.168 14.848-15.36 16.896q-10.24 9.216-22.528 19.456-12.288-18.432-20.992-41.984t-12.8-43.52-2.048-32.768 10.24-10.752zM428.997486 439.296q24.576 0 36.352 7.68t13.312 16.896-6.144 15.872-19.968 5.632q-55.296-7.168-103.424-3.072-20.48 1.024-40.96 4.608t-38.912 10.24-33.28 16.896-22.016 24.576q-12.288 3.072-21.504 1.024-8.192-2.048-12.288-8.192t1.024-20.48q7.168-19.456 23.552-32.256t38.4-20.992 47.616-11.776 50.688-5.12 47.616-1.536l39.936 0zM521.157486 574.464q17.408 16.384 38.4 43.52t38.912 57.856 29.184 60.416 10.24 50.176q-1.024 16.384-25.088 27.648t-59.904 14.336-76.8-4.096-74.752-28.672q-13.312-8.192-33.792-25.6t-42.496-39.424-42.496-46.08-33.28-46.08-14.848-39.424 12.288-25.6q11.264-6.144 32.768-11.776t48.128-8.704 55.808-4.096 55.808 1.024 48.64 8.192 33.28 16.384z"  horiz-adv-x="1147" />

    
    <glyph glyph-name="jicai" unicode="&#58882;" d="M29.2864 466.8608l434.432-197.9392c38.4-18.3296 54.9376-18.3296 96.5632 0l434.432 197.9392c32 15.104 33.0752 79.36 0 97.6896l-434.432 232.448c-34.1504 20.48-58.1632 19.4048-96.5632 0l-434.432-232.448C-3.7888 542.9952-4.864 485.1904 29.2864 466.8608zM512 757.5744l443.7504-241.8688L512 326.2656 68.2496 515.7056 512 757.5744zM512-106.1696l-443.7504 207.2576C69.7856 100.1664 29.0304 118.8544 0 135.648c0-25.088 6.2464-70.9632 29.2864-83.4048l434.432-197.888c38.4-18.3808 54.9376-18.3808 96.5632 0l434.432 197.888C1016.1664 62.3808 1024 109.9968 1024 135.648c-27.9552-14.1312-67.4816-34.3552-68.2496-34.5088L512-106.1696zM29.2864 259.552l434.432-197.888c38.4-18.3808 54.9376-18.3808 96.5632 0l434.432 197.888C1016.1664 269.6896 1024 317.3056 1024 342.9568c-27.9552-14.1312-67.4816-34.4064-68.2496-34.56L512 101.1392 68.2496 308.3968C69.7856 307.4752 29.0304 326.1632 0 342.9568 0 317.8688 6.2464 271.9936 29.2864 259.552z"  horiz-adv-x="1024" />

    
    <glyph glyph-name="cikuyouhua" unicode="&#58926;" d="M682.666667 447.911111 364.088889 447.911111c-12.561067 0-22.755556-10.217244-22.755556-22.755556 0-12.583822 10.194489-22.755556 22.755556-22.755556l318.577778 0c12.583822 0 22.755556 10.171733 22.755556 22.755556C705.422222 437.693867 695.250489 447.911111 682.666667 447.911111zM682.666667 561.688889 364.088889 561.688889c-12.561067 0-22.755556-10.217244-22.755556-22.755556 0-12.583822 10.194489-22.801067 22.755556-22.801067l318.577778 0c12.583822 0 22.755556 10.217244 22.755556 22.801067C705.422222 551.471644 695.250489 561.688889 682.666667 561.688889zM841.955556-75.466667l0 68.266667 11.377778 0L864.711111-7.2 864.711111 629.955556 864.711111 720.977778l-91.022222 0L250.311111 720.977778C200.044089 720.977778 159.288889 680.222578 159.288889 629.955556l0-648.487822L159.288889-18.577778l0-11.423289C159.288889-80.222578 200.044089-120.977778 250.311111-120.977778l523.377778 0c0.159289 0 0.318578 0 0.477867 0L864.711111-120.977778l0 45.511111-3.800178 0L841.955556-75.466667zM813.511111-75.466667l-39.662933 0L614.4-75.466667 356.829867-75.466667 227.555556-75.466667l4.619378 0C218.976711-70.756267 204.8-56.124444 204.8-41.333333c0 14.836622 14.5408 29.422933 27.739022 34.133333L227.555556-7.2l126.043022 0L813.511111-7.2 813.511111-75.466667zM819.2 629.955556l0-591.644444L227.555556 38.311111l0-0.091022c-8.305778-0.045511-16.065422-0.227556-22.755556-0.750933L204.8 629.955556c0 25.122133 20.388978 45.4656 45.511111 45.4656l523.377778 0L773.688889 675.466667l45.511111 0L819.2 629.955556z"  horiz-adv-x="1024" />

    
    <glyph glyph-name="baokuan" unicode="&#58927;" d="M511.965194 640.016379 255.982597 230.445043 204.785668-127.932435l614.359051 0 204.786692 614.392834L767.948814 230.445043 511.965194 640.016379zM0 486.460399 204.785668-127.932435l51.196929 358.409213L0 486.460399zM511.965194 691.213308c56.529452 0 102.392834 45.863382 102.392834 102.426617 0 56.563234-45.864406 102.360075-102.392834 102.360075S409.57236 850.204183 409.57236 793.639925C409.57236 737.076691 455.435742 691.213308 511.965194 691.213308zM921.537553 537.657328c56.531499 0 102.393858 45.830623 102.393858 102.360075 0 56.598041-45.863382 102.392834-102.393858 102.392834-56.529452 0-102.392834-45.795817-102.392834-102.392834C819.144719 583.487951 865.008102 537.657328 921.537553 537.657328zM102.392834 537.657328c56.529452 0 102.392834 45.830623 102.392834 102.360075 0 56.598041-45.864406 102.392834-102.392834 102.392834-56.530475 0-102.392834-45.795817-102.392834-102.392834C0 583.487951 45.862359 537.657328 102.392834 537.657328z"  horiz-adv-x="1025" />

    
    <glyph glyph-name="chanpin-copy" unicode="&#58883;" d="M286.51 715.273c39.311 0 76.242-15.315 104.030-43.102 27.787-27.787 43.102-64.741 43.102-104.026v-147.13h-147.131c-39.306 0-76.237 15.292-104.026 43.101-27.788 27.788-43.101 64.747-43.101 104.030 0 39.285 15.287 76.238 43.101 104.026 27.789 27.815 64.743 43.102 104.026 43.102M286.604 761.446c-106.795 0-193.394-86.576-193.394-193.394 0-106.8 86.576-193.398 193.394-193.398h149.808c24.063 0 43.562 19.525 43.562 43.59v149.808c0.027 106.818-86.55 193.394-193.371 193.394v0 0 0zM287.048 261.759v0h144.034v-144.034c0-38.472-14.985-74.636-42.192-101.842-27.205-27.205-63.374-42.192-101.842-42.192-38.472 0-74.636 14.986-101.842 42.192-27.205 27.205-42.192 63.369-42.192 101.842 0 38.468 14.986 74.636 42.192 101.842 27.205 27.207 63.369 42.192 101.842 42.192M286.604 310.681c-106.795 0-193.394-86.576-193.394-193.398 0-106.795 86.576-193.394 193.394-193.394 106.8 0 193.398 86.576 193.398 193.394v149.808c0 24.063-19.527 43.59-43.59 43.59h-149.808zM739.304 716.018c39.006 0 75.684-15.199 103.259-42.777 27.578-27.575 42.777-64.253 42.777-103.259 0-39.005-15.199-75.683-42.777-103.263-27.575-27.578-64.253-42.773-103.259-42.773h-146.034v146.036c0 39.006 15.194 75.684 42.773 103.259 27.579 27.577 64.257 42.776 103.262 42.776M737.397 761.446c-106.801 0-193.394-86.576-193.394-193.394v-149.808c0-24.064 19.5-43.563 43.586-43.563h149.808c106.794 0 193.393 86.573 193.393 193.394 0 106.794-86.599 193.372-193.393 193.372v0 0 0zM737.348 262.389v0c38.751 0 75.172-15.106 102.587-42.498 27.393-27.392 42.498-63.835 42.498-102.582 0-38.752-15.083-75.195-42.498-102.587-27.392-27.393-63.836-42.498-102.587-42.498-38.747 0-75.169 15.083-102.583 42.498-27.392 27.414-42.497 63.835-42.497 102.587v145.081h145.081M737.397 310.681h-149.808c-24.064 0-43.586-19.505-43.586-43.59v-149.808c0-106.795 86.572-193.394 193.394-193.394 106.794 0 193.393 86.576 193.393 193.394 0 106.8-86.599 193.398-193.393 193.398v0 0 0zM737.397 310.681z"  horiz-adv-x="1024" />

    
    <glyph glyph-name="rizhi1" unicode="&#59021;" d="M811.993-96l-599.988 0c-66.289 0-119.988 53.746-119.988 119.988l0 599.989c0 66.289 53.699 120.035 119.988 120.035l89.979 0 0 59.972 80.828 0c25.968 35.722 73.813 60.017 129.186 60.017s103.22-24.295 129.187-60.017l80.782 0 0-59.972 90.025 0c66.243 0 119.989-53.746 119.989-120.035l0-599.989c0.001-66.242-53.745-119.988-119.988-119.988l0 0zM661.997 744.011l-66.661 0c0 33.122-37.301 59.972-83.337 59.972-46.035 0-83.337-26.85-83.337-59.972l-66.659 0 0-120.035 299.994 0 0 120.035zM871.964 623.977c0 33.168-26.85 60.017-59.971 60.017l-90.025 0 0-119.988-419.982 0 0 119.988-89.979 0c-33.121 0-60.018-26.85-60.018-60.017l0-599.989c0-33.12 26.898-59.97 60.018-59.97l599.988 0c33.121 0 59.971 26.85 59.971 59.97l0 599.989-0.001 0zM721.968 84.007l-419.982 0c-16.537 0-29.963 13.425-29.963 30.008 0 16.584 13.425 30.009 29.963 30.009l419.982 0c16.583 0 30.008-13.425 30.008-30.009-0.001-16.583-13.426-30.008-30.008-30.008l0 0zM721.968 234.004l-419.982 0c-16.537 0-29.963 13.425-29.963 30.008 0 16.537 13.425 30.008 29.963 30.008l419.982 0c16.583 0 30.008-13.471 30.008-30.008-0.001-16.584-13.426-30.008-30.008-30.008l0 0zM721.968 384l-419.982 0c-16.537 0-29.963 13.425-29.963 30.009s13.425 30.009 29.963 30.009l419.982 0c16.583 0 30.008-13.425 30.008-30.009s-13.426-30.009-30.008-30.009l0 0z"  horiz-adv-x="1024" />

    
    <glyph glyph-name="fabu" unicode="&#58957;" d="M703.439 696.442l-131.996-137.51-51.601-53.718-46.509-48.417c-14.012-14.592-53.177-54.347-62.523-64.293-9.345-9.949-15.292-16.249-17.836-18.902-5.947-6.19-10.514-11.828-13.698-16.913-3.184-5.09-6.058-10.72-8.601-16.911-2.125-3.982-4.882-11.274-8.28-21.893-3.401-10.607-6.903-22.211-10.518-34.814-3.606-12.602-7.006-24.762-10.189-36.48-3.188-11.711-5.202-20.664-6.052-26.862-1.699-11.49-0.64-19.673 3.184-24.54 3.823-4.858 11.469-6.629 22.933-5.3 5.524 0.883 13.914 2.873 25.169 5.97 11.255 3.093 23.144 6.741 35.673 10.941 12.528 4.201 24.528 8.511 35.998 12.929 11.469 4.426 20.17 8.182 26.117 11.283 5.948 2.648 11.681 6.186 17.203 10.608 5.522 4.42 10.405 8.619 14.652 12.602 1.699 1.322 7.008 6.632 15.923 15.916 8.92 9.287 20.18 21.115 33.77 35.484 13.588 14.365 56.367 57.659 73.354 74.904l50.966 53.724L823.6 574.876 703.439 696.442zM617.567 404.316l-31.86-32.074c-10.62-10.297-37.36-36.142-45.856-44.718-8.494-8.58-15.535-15.64-21.11-21.186-5.574-5.544-8.89-8.712-9.953-9.503-2.656-2.375-5.708-4.884-9.161-7.521-3.45-2.643-7.034-4.753-10.752-6.336-3.718-1.853-9.157-4.092-16.328-6.737-7.17-2.636-14.67-5.209-22.503-7.716-7.831-2.508-15.265-4.685-22.301-6.532-7.035-1.849-12.282-3.039-15.734-3.564-7.166-0.795-11.946 0.265-14.336 3.163-2.389 2.905-3.052 7.79-1.99 14.649 0.531 3.703 1.791 9.046 3.784 16.041 1.989 6.995 4.114 14.254 6.368 21.778 2.262 7.523 4.451 14.452 6.576 20.783 2.125 6.337 3.849 10.693 5.176 13.071 1.589 3.693 3.387 7.056 5.376 10.095 1.99 3.034 4.846 6.402 8.563 10.097 1.59 1.585 5.309 5.345 11.149 11.285 5.843 5.939 251.127 251.645 251.127 251.645l75.324-74.383L617.567 404.316zM863.461 482.429l0-198.483 0-123.681 0 0.74L863.461 134.8c0-67.902-55.265-123.137-123.135-123.137L591.182 11.663l-0.011 0L432.443 11.663l-0.012 0L283.286 11.663c-67.869 0-123.133 55.234-123.133 123.137l0 27.662 0 0.268L160.153 482.352 160.153 607.847l0-1.811 0 25.467c0 67.902 55.264 123.132 123.133 123.132l149.145 0 90.026 0 41.229 0 21.024 0 83.39 70.319-27.485 0L640.615 825 283.286 825C179.75 825 94.916 743.226 90.022 640.849l-0.231 0 0-9.346 0-1.634 0 0L89.791 134.8l0-9.345 0.231 0c4.894-102.377 89.728-184.151 193.264-184.151l3.515 0 450.012 0 3.513 0c103.538 0 188.373 81.774 193.266 184.151l0.23 0L933.822 134.8 933.822 551.541 863.461 482.429 863.461 482.429zM863.461 482.429M846.776 797.236c-4.534 0.845-9.003 1.236-13.339 1.176 0.645 0 1.295 0 1.947-0.021C839.246 798.252 843.041 797.866 846.776 797.236L846.776 797.236zM846.776 797.236M922.68 707.559c0.695 12.429-2.594 26.078-9.55 39.126-4.717 8.843-11.106 17.413-19.095 25.124-14.301 13.804-31.153 22.426-47.259 25.421-3.729 0.63-7.53 1.016-11.392 1.154-0.646 0.027-1.297 0.021-1.947 0.027-7.047 0.039-14.201-1.065-21.461-3.332-7.938-2.483-15.608-6.748-23.017-12.804-5.822-4.956-13.097-11.708-21.826-20.242-8.727-8.542-16.27-15.835-22.618-21.892l119.546-121.517c3.702 3.304 7.669 7.16 11.906 11.568 3.702 3.85 8.065 8.26 13.097 13.218 5.02 4.955 10.708 10.737 17.06 17.347 5.819 6.608 10.051 13.499 12.698 20.655 2.643 7.161 3.967 14.321 3.967 21.482C922.789 704.464 922.746 706.016 922.68 707.559zM892.396 690.431c-1.811-4.896-4.705-9.61-8.688-14.131-4.345-4.521-8.233-8.478-11.669-11.867-3.441-3.392-6.427-6.408-8.96-9.042 2.533 2.259-2.898-3.015 0 0l-82.525 82.328c4.344 4.144 2.104 2.019 8.076 7.861 5.97 5.839 10.947 10.458 14.928 13.847 5.069 4.144 10.313 7.06 15.745 8.759 4.969 1.551 9.864 2.306 14.683 2.28 0.445-0.004 0.89 0 1.333-0.02 2.641-0.095 5.24-0.358 7.792-0.79 11.017-2.049 22.547-7.947 32.329-17.39 5.464-5.274 9.834-11.137 13.063-17.188 4.758-8.925 7.008-18.262 6.532-26.765 0.045-1.055 0.075-2.117 0.075-3.188C895.109 700.227 894.203 695.328 892.396 690.431z"  horiz-adv-x="1024" />

    
    <glyph glyph-name="baobiao" unicode="&#59116;" d="M192 665.6c0 21.76 17.28 39.04 39.04 39.04l561.92 0c21.76 0 39.04-17.28 39.04-39.04L832 544l64 0L896 665.6c0 56.96-46.08 103.04-103.04 103.04L231.04 768.64C174.08 768 128 721.92 128 665.6l0-217.6 64 0L192 665.6zM832 103.04c0-21.76-17.28-39.04-39.04-39.04L231.04 64c-21.76 0-39.04 17.28-39.04 39.04L192 224 128 224l0-120.96c0-56.96 46.08-103.04 103.04-103.04l561.92 0c56.96 0 103.04 46.08 103.04 103.04L896 320l-64 0L832 103.04zM954.88 497.28c-9.6 14.72-29.44 19.2-44.16 9.6L580.48 296.96 389.76 487.68 80.64 316.16c-15.36-8.32-21.12-28.16-12.16-43.52 8.32-15.36 28.16-21.12 43.52-12.16l266.88 148.48 193.28-193.28 373.76 238.08C960 462.72 964.48 482.56 954.88 497.28z"  horiz-adv-x="1024" />

    
    <glyph glyph-name="qushi-copy" unicode="&#58884;" d="M1142.032-49.244c21.708 0 39.305-17.478 39.305-39.378 0-21.748-17.616-39.378-39.305-39.378h-1102.726c-21.708 0-39.305 17.478-39.305 39.378 0 21.748 17.616 39.378 39.305 39.378h157.584v236.364c0 21.694 17.478 39.281 39.378 39.281 21.748 0 39.378-17.575 39.378-39.281v-236.364h157.512v393.838c0 21.715 17.478 39.319 39.378 39.319 21.748 0 39.378-17.621 39.378-39.319v-393.838h157.512v315.197c0 21.652 17.478 39.204 39.378 39.204 21.748 0 39.378-17.517 39.378-39.204v-315.197h157.512c-0 0.011-0 511.878-0 511.878 0 21.767 17.478 39.412 39.378 39.412 21.748 0 39.378-17.509 39.378-39.412v-511.844c0-0.011 157.584-0.034 157.584-0.034zM726.355 416.154c-13.919-14.114-36.161-15.681-51.921-3.657l-208.074 159.475-359.137-336.735c-15.843-14.899-40.764-14.133-55.662 1.71-14.899 15.843-14.133 40.764 1.71 55.662l382.44 359.641c14.031 13.195 35.547 14.303 50.86 2.621l207.716-160.401 305.691 311.289-129.222-14.675c-21.609-2.454-41.116 13.074-43.57 34.683-2.454 21.609 13.074 41.116 34.683 43.57l231.021 26.236c23.358 2.653 43.821-15.619 43.821-39.126l0-208.030c0-21.748-17.63-39.378-39.378-39.378-21.748 0-39.378 17.63-39.378 39.378l-0 103.973-331.602-336.236z"  horiz-adv-x="1182" />

    
    <glyph glyph-name="32" unicode="&#58935;" d="M512 832C264.576 832 64 631.424 64 384s200.576-448 448-448c247.424 0 448 200.576 448 448S759.424 832 512 832zM582.656 761.152c90.944-17.024 170.56-66.176 226.816-135.232 18.752-23.04 34.88-48.256 47.936-75.264l-178.624 0C653.696 642.112 613.696 714.432 582.656 761.152 582.656 761.152 582.656 761.152 582.656 761.152 582.72 761.152 582.72 761.152 582.656 761.152zM644.16 376.64c0-33.664-3.712-65.152-9.024-95.296L635.008 281.344 388.864 281.344c-5.312 30.08-8.96 61.568-8.96 95.296 0 38.784 4.288 75.456 10.944 110.08l242.24 0C639.808 452.096 644.16 415.424 644.16 376.64zM512 759.232c6.464-8.576 14.336-19.712 23.04-33.024 26.048-40.064 59.264-100.416 82.24-175.488l0 0c0 0 0-0.064 0-0.064l-210.56 0L406.72 550.72l0 0C437.376 650.752 486.208 724.8 512 759.232zM166.656 550.72c52.352 107.904 153.472 187.776 274.752 210.496 0 0 0-0.064-0.064-0.064 0 0 0 0 0.064 0-31.04-46.72-71.04-119.04-96.192-210.496L166.656 550.72C166.656 550.656 166.656 550.72 166.656 550.72L166.656 550.72zM128 384c0 35.584 5.248 69.952 14.336 102.72l188.8 0C325.184 451.968 321.344 415.36 321.344 376.64c0-33.408 2.752-65.152 7.488-95.296L328.704 281.344 142.336 281.344C133.248 314.048 128 348.416 128 384zM441.152 6.848c-107.136 23.168-221.12 97.152-274.496 210.496l175.936 0C367.04 125.312 408.192 53.568 441.152 6.848 441.152 6.848 441.152 6.848 441.152 6.848 441.088 6.848 441.088 6.848 441.152 6.848zM403.392 217.344l217.152 0C590.656 117.056 540.16 45.376 512 10.752 483.84 45.312 433.344 116.864 403.392 217.344zM582.912 6.848c33.024 46.72 74.048 118.464 98.56 210.496l175.936 0C805.184 109.44 704.192 29.568 582.912 6.848zM695.232 281.28C695.296 281.28 695.296 281.344 695.232 281.28L695.232 281.28c4.736 30.208 7.488 61.952 7.488 95.296 0 38.72-3.84 75.328-9.856 110.08l0 0c0 0 0 0.064 0 0.064l188.8 0C890.816 453.952 896 419.584 896 384c0-35.584-5.248-69.952-14.336-102.72L695.232 281.28z"  horiz-adv-x="1024" />

    
    <glyph glyph-name="shuju" unicode="&#59897;" d="M294.619576 333.827297 474.735793 522.27118l174.089967-182.166923c1.341554-2.080382 2.213411-4.432962 3.992941-6.277984 14.277168-14.945387 37.380352-14.945387 51.621704 0l199.999057 209.248721c2.184759 1.477654 4.300956 3.208065 6.212492 5.206582 14.576997 15.264659 14.576997 40.016389 0 55.296397-14.606673 15.264659-38.284955 15.264659-52.859905 0-1.077541-1.157359-1.546216-2.653433-2.486634-3.895727L679.654906 415.872918 501.890246 601.885426c-0.452301 0.520863-0.606821 1.192152-1.076518 1.696642-14.591323 15.264659-38.254256 15.264659-52.861952 0-1.076518-1.159406-1.527796-2.653433-2.451842-3.897773l-202.502064-211.888851c-14.258749-14.911618-14.258749-39.093367 0-53.969169C257.254573 318.880887 280.378224 318.880887 294.619576 333.827297L294.619576 333.827297zM927.143557 88.553081 128.77541 88.553081l0 623.725594c0 18.136056-14.290471 32.828686-31.92306 32.828686-17.648962 0.001023-31.939433-14.69263-31.939433-32.828686l0-656.5727c0-18.138102 14.290471-32.81129 31.939433-32.81129l830.294276 0c17.631566 0 31.93841 14.674211 31.93841 32.81129C959.085036 73.841008 944.776146 88.553081 927.143557 88.553081L927.143557 88.553081z"  horiz-adv-x="1024" />

    
    <glyph glyph-name="wenjianjia" unicode="&#58922;" d="M64.000512 60.966415l0 646.984051c0 37.456002 30.221242 68.39765 68.001631 68.39765l284.929832 0c37.77118 0 68.532726-30.939601 68.532726-68.39765l0-38.534564-18.886101 0c-11.395515 0-18.707023-9.807347-18.708047-16.37389 0-7.045449 0.062422 53.845241 0.062422 53.845241 0 18.191278-13.732742 32.002814-31.002023 32.002814l-284.928808 0c-17.270304 0-31.302874-14.112388-31.302874-30.939601L100.699268 267.036335 64.000512 60.966415zM857.813359 526.665995l0 74.36249c0 17.371611-14.03257 30.939601-31.293664 30.939601L466.578599 631.968086c-10.259647 0-18.708047 9.550498-18.708047 19.859264 0 11.288068 11.512172 18.035736 18.708047 17.588552l360.485494 0c37.229852 0 67.989351-30.396227 67.989351-68.387417l0-74.382956C895.053444 526.645529 865.633449 526.665995 857.813359 526.665995M821.654907-10.689435 130.379182-10.689435c-36.698757 0-75.457425 16.747396-66.378671 72.190015 16.742279 102.241388 71.232202 398.947404 71.232202 398.947404 1.082656 36.910581 30.760523 66.218012 66.378671 66.218012l691.819099 0c36.700803 0 66.377647-30.396227 66.377647-68.38844 0-1.088796 0-2.168382-0.542351-3.259224l-71.232202-398.944334c-1.072423-36.903418-30.220218-66.764456-66.378671-66.764456L821.654907-10.689435zM101.240596 56.619419c0.543375-16.82619 13.491242-29.851829 29.137562-29.851829l691.276748 0c16.197881 0 24.497901 14.260767 29.147795 30.940624 0.288572 1.039677 0.542351 2.714826 0.542351 3.794412l71.232202 398.401983c-0.542351 16.281792-13.492265 29.848759-29.148819 29.848759L201.609338 489.753368c-16.187648 0-29.135516-14.111364-29.135516-31.475812l0-3.259224L101.240596 56.619419 101.240596 56.619419z"  horiz-adv-x="1024" />

    
    <glyph glyph-name="danrishiyongfenbu4" unicode="&#59004;" d="M815.67744 321.26976c0-202.05568-164.352-366.44864-366.42816-366.44864-202.0352 0-366.42816 164.37248-366.42816 366.44864 0 202.0352 164.39296 366.42816 366.42816 366.42816h10.0352V770.51904h-10.0352C201.54368 770.51904 0 568.97536 0 321.26976 0 73.5232 201.54368-128 449.24928-128c247.72608 0 449.24928 201.5232 449.24928 449.26976v10.0352h-82.82112v-10.0352zM543.37536 896H501.9648v-522.0352H1024v41.41056C1024 662.4256 790.44608 896 543.37536 896z m41.41056-439.21408V811.95008C760.832 788.70528 916.6848 632.832 939.95008 456.78592H584.78592z"  horiz-adv-x="1024" />

    
    <glyph glyph-name="xiaoguo" unicode="&#59030;" d="M807.661972 124.394366l-219.943662 212.732395c-10.816901 10.816901-28.84507 10.816901-39.661972 0-10.816901-10.816901-10.816901-28.84507 0-39.661972l219.943662-212.732395c3.605634-3.605634 10.816901-7.211268 18.028169-7.211267s14.422535 3.605634 18.028169 7.211267c14.422535 10.816901 14.422535 28.84507 3.605634 39.661972z m-173.070423 288.450704c10.816901 0 18.028169 7.211268 21.633803 18.028169 3.605634 7.211268 0 18.028169-7.211267 25.239437l-90.140846 86.535211 18.028169 118.985916c0 10.816901-3.605634 18.028169-10.816901 25.239436-7.211268 7.211268-18.028169 7.211268-25.239437 3.605634l-111.774647-57.690141-111.774648 54.084507c-7.211268 7.211268-18.028169 3.605634-25.239437 0-7.211268-7.211268-10.816901-14.422535-10.816901-25.239436l21.633802-122.591549-90.140845-86.535212c-7.211268-7.211268-10.816901-18.028169-7.211267-25.239436 3.605634-7.211268 10.816901-14.422535 21.633803-18.028169l126.197183-18.028169 57.690141-111.774648c3.605634-7.211268 14.422535-14.422535 21.633802-14.422535 10.816901 0 18.028169 3.605634 21.633803 14.422535l57.690141 111.774648 122.591549 21.633802zM468.732394 427.267606l-39.661971-79.323944-39.661972 79.323944c-3.605634 7.211268-10.816901 10.816901-18.028169 14.422535l-86.535212 10.816901 64.901409 61.295775c7.211268 7.211268 7.211268 14.422535 7.211267 21.633803l-18.028169 86.535211 79.323944-39.661972c7.211268-3.605634 14.422535-3.605634 21.633803 0l79.323944 39.661972L504.788732 535.43662c0-7.211268 0-14.422535 7.211268-21.633803l64.901408-61.295775-86.535211-10.816901c-10.816901 0-18.028169-7.211268-21.633803-14.422535z m-140.619718-155.042254l-21.633803-64.901408-68.507042-21.633803 68.507042-21.633803 21.633803-64.901408 21.633803 64.901408 68.507042 21.633803-68.507042 21.633803-21.633803 64.901408z m176.676056 14.422535l-10.816901-32.450704-32.450704-10.816901 32.450704-10.816902 10.816901-32.450704 10.816902 32.450704 32.450704 10.816902-32.450704 10.816901-10.816902 32.450704z"  horiz-adv-x="1024" />

    
    <glyph glyph-name="digital" unicode="&#58900;" d="M64-64V832h64v-832h832v-64H64zM192 512h128v-448H192zM384 704h128v-640H384zM576 448h128v-384H576zM768 576h128v-512h-128z"  horiz-adv-x="1024" />

    
    <glyph glyph-name="product" unicode="&#58897;" d="M508.885 814.222c14.99 0 29.568-2.944 39.993-8.078l287.388-141.44c4.565-2.247 15.189-8.42 15.246-17.266 0.043-6.329-5.845-13.113-15.744-18.133l-290.432-147.47c-11.193-5.689-26.766-8.946-42.709-8.946-14.99 0-29.568 2.944-39.993 8.078l-287.403 141.44c-4.565 2.247-15.189 8.42-15.246 17.266-0.043 6.329 5.845 13.113 15.758 18.133l290.432 147.456c11.207 5.703 26.766 8.96 42.709 8.96M508.885 842.667c-20.565 0-40.306-4.281-55.58-12.032l-290.418-147.47c-20.011-10.169-31.431-26.084-31.317-43.676 0.114-17.408 11.463-32.939 31.147-42.61l287.388-141.426c14.407-7.097 33.067-10.994 52.551-10.994 20.565 0 40.306 4.281 55.58 12.032l290.432 147.47c20.011 10.169 31.417 26.084 31.303 43.676-0.114 17.394-11.463 32.939-31.132 42.61l-287.403 141.426c-14.407 7.083-33.067 10.994-52.551 10.994zM145.209 522.61c5.561 0 11.748-1.65 18.29-4.836l257.408-135.054c22.756-11.221 38.030-35.072 38.030-50.29v-363.164c0-9.7-5.973-15.488-15.986-15.488-5.561 0-11.762 1.65-18.29 4.821l-257.408 135.054c-22.756 11.236-38.030 35.072-38.030 50.29v363.193c0.014 9.685 5.988 15.474 15.986 15.474M145.209 551.054c-25.728 0-44.416-18.475-44.416-43.932v-363.179c0-28.103 23.14-60.629 53.888-75.804l257.408-135.054c10.567-5.148 20.949-7.765 30.876-7.765 25.742 0 44.416 18.475 44.43 43.918v363.193c0 28.103-23.154 60.629-53.888 75.804l-257.422 135.054c-10.567 5.148-20.949 7.765-30.876 7.765zM878.791 522.624c9.998 0 15.972-5.788 15.972-15.488v-363.179c0-15.218-15.289-39.068-38.656-50.617l-257.010-134.855c-6.514-3.129-12.587-4.722-18.048-4.722-10.012 0-15.986 5.788-15.986 15.474v363.193c0 15.232 15.275 39.068 38.656 50.617l257.010 134.855c6.514 3.129 12.601 4.722 18.062 4.722M878.791 551.068c-9.927 0-20.324-2.617-30.876-7.78l-257.408-135.054c-30.748-15.175-53.888-47.701-53.888-75.804v-363.179c0-25.444 18.688-43.918 44.43-43.918 9.927 0 20.309 2.617 30.876 7.765l257.408 135.054c30.748 15.175 53.888 47.701 53.888 75.804v363.179c-0.014 25.458-18.688 43.932-44.43 43.932z"  horiz-adv-x="1024" />

    
    <glyph glyph-name="chaxun" unicode="&#58917;" d="M727.816578 616.792945h-382.871252c-14.447972 0-26.367549-11.919577-26.367548-26.367548s11.919577-26.367549 26.367548-26.367549h383.232452c14.447972 0 26.367549 11.919577 26.367548 26.367549-0.361199 14.447972-11.919577 26.367549-26.728748 26.367548zM456.555908 507.710758H344.945326c-14.447972 0-26.367549-11.919577-26.367548-26.367548s11.919577-26.367549 26.367548-26.367549h111.610582c14.447972 0 26.367549 11.919577 26.367549 26.367549 0 14.809171-11.919577 26.367549-26.367549 26.367548zM344.945326 345.171076h54.902293c14.447972 0 26.367549 11.919577 26.367549 26.367548s-11.919577 26.367549-26.367549 26.367549H344.945326c-14.447972 0-26.367549-11.919577-26.367548-26.367549-0.361199-14.447972 11.558377-26.367549 26.367548-26.367548zM260.424691 143.26067v509.291005c0 10.835979 9.029982 19.865961 19.865962 19.865962h512.180599c10.835979 0 19.865961-9.029982 19.865961-19.865962v-336.637742h54.902293V652.551675c0 41.537919-33.591534 74.768254-74.768254 74.768254H280.290653c-41.537919 0-74.768254-33.591534-74.768254-74.768254v-509.291005c0-41.537919 33.591534-74.768254 74.768254-74.768254H614.038801v54.902293H280.290653c-10.835979 0-19.865961 9.029982-19.865962 19.865961zM862.905115 114.364727l-1.083598 1.083598-1.083598 1.083597-125.697355 125.697355c14.447972 21.671958 22.755556 47.678307 22.755556 75.490652 0 75.851852-61.40388 137.255732-137.255732 137.255732s-137.255732-61.40388-137.255732-137.255732 61.40388-137.255732 137.255732-137.255731c28.534744 0 55.263492 8.668783 76.93545 23.839153l126.058554-126.058554c0-0.361199 0.361199-0.361199 0.361199-0.722398l1.083598-1.083598c0.361199-0.361199 0.361199-0.361199 0.722398-0.3612l0.3612-0.361199c10.47478-9.752381 27.089947-9.752381 37.203527 0.722399 10.47478 10.11358 10.47478 27.089947-0.361199 37.925926z m-242.725926 121.001763c-45.511111 0-82.353439 36.842328-82.353439 82.353439 0 45.511111 36.842328 82.353439 82.353439 82.35344 45.511111 0 82.353439-36.842328 82.353439-82.35344 0-45.511111-36.842328-82.353439-82.353439-82.353439z"  horiz-adv-x="1024" />

    
    <glyph glyph-name="guanjianci" unicode="&#59014;" d="M760.84 410.534c8.818-30.394 13.97-57.689 13.97-90.925 0-153.44-131.06-328.134-322.865-328.134-174.204 0-323.345 151.428-323.345 328.133 0 175.892 159.576 324.111 320.347 324.88 30.29 0.145 64.252-4.28 92.227-11.65l13.83 63.025c-32.829 8.971-67.383 13.764-103.057 13.764-215.412 0-390.025-176.663-390.025-392.062 0-215.404 174.613-387.975 390.025-387.975 215.398 0 390.02 174.618 390.02 390.022 0 39.25-5.808 77.149-16.595 112.888l-64.531-21.966zM474.937 448.538c6.966 0 13.524-1.016 20.216-1.996l14.882 60.867a188.155 188.155 0 0 1-36.093 3.49c-103.392 0-194.648-83.973-200.291-187.21-6.229-113.942 84.046-194.433 201.286-194.433 103.394 0 186.22 91.039 186.22 194.436 0 13.186-1.372 26.05-3.964 38.469l-65.68-14.212c1.038-6.879 2.995-14.784 2.995-21.95 0-77.55-43.83-134.125-121.377-134.125-74.617 0-134.635 48.033-134.635 128.203 0 69.326 62.585 128.46 136.441 128.46zM958.523 672.758l-177.135-7.779-18.92 175.432-43.319-48.543 0.016-0.204L603.838 658.53l1.952-1.978 7.586-136.42-158.99-183.36 47.485-40.614 158.992 183.364 138.362 9.852-0.012 0.183 0.182-0.17 115.466 133.176-0.192 0.157 0.179 0.013 43.675 50.025z m-186.058-133.54l-106.693-7.597-7.6 106.718 72.257 83.344 7.6-106.706 106.712 7.599-72.276-83.358z"  horiz-adv-x="1024" />

    
    <glyph glyph-name="daoru" unicode="&#58906;" d="M462.72 124.032zM241.92 409.472c0 0.704 0 1.344-0.64 2.688 0-3.328 0-4.032 0.64-2.688z m-1.984 6.144c1.344-1.408 1.344-2.688 1.344-3.392v1.984s-0.704 0.64-1.344 1.408zM479.616 202.816c40.384 43.84 81.472 88.192 121.856 131.968 40.448 44.48 81.472 90.176 121.984 131.968v0.704a19.328 19.328 0 0 1 6.656 14.848v3.968c0 12.096-11.456 22.912-26.304 22.912H590.656c0 5.376-0.704 10.112-1.344 15.424l-8.832 38.4a408.96 408.96 0 0 1-16.704 41.088 275.648 275.648 0 0 1-33.024 53.184 285.568 285.568 0 0 1-45.12 44.48c-66.624 54.4-159.552 86.144-251.84 97.6a2623.296 2623.296 0 0 1-77.312 6.656c-2.688 0-6.144 0.64-6.144 0.64a46.528 46.528 0 0 1-10.752 1.408h-17.536c-15.488 0-30.976 0.64-44.416-4.736-21.568-8.064-16.128-36.992 6.08-40.96 0.64 0 1.344 0 1.344-0.704l6.016-2.048c4.096-1.344 8.064-3.456 12.8-5.376 8.768-4.032 18.176-8.064 26.944-12.16 17.536-8 34.368-16.832 50.496-26.24 16.896-9.408 27.648-16.128 43.84-27.648 14.784-10.752 28.928-22.144 42.368-33.664 3.328-3.328 6.08-6.016 9.408-8.704 1.408-1.344 2.048-2.688 3.392-4.032 0 0 3.392-2.688 3.392-3.392 6.016-6.016 11.456-12.8 16.128-19.52 5.376-6.08 9.408-12.8 13.504-19.52 5.376-8.064 7.424-12.8 10.752-19.52 2.688-5.376 4.032-10.752 6.016-16.832 0 0 1.344-7.424 3.392-22.912v-15.488h2.048c0-4.032 0-8-0.704-12.032v-4.032l-87.552 1.92h-3.328l-41.792 4.736c-17.472 1.408-31.616-6.72-32.96-17.536l-0.64-4.032a15.808 15.808 0 0 1 6.016-14.08v-0.64c12.864-12.8 33.024-29.632 47.872-43.776 8.064-7.424 14.784-14.144 17.536-18.816v-0.64c0.576-0.832 1.28-1.472 1.28-1.472 63.936-70.656 127.168-141.312 190.528-211.392 13.504-14.784 34.304-14.144 47.808 0zM263.488 464.704c31.616-0.704 62.592-1.344 94.208-1.344 11.52-0.704 24.256 6.72 26.304 16.192a211.2 211.2 0 0 1 6.08 53.824 165.248 165.248 0 0 1-12.096 55.872c-14.144 35.008-39.104 65.92-68.032 93.568-28.928 26.944-63.296 49.856-98.304 70.72-1.984 1.344-4.032 1.984-6.144 3.392 2.048 0 4.096 0 6.08-0.704 18.944-1.344 45.824-6.08 68.736-11.456 10.752-1.92 21.568-4.672 32.32-8 4.672-1.408 10.048-2.688 14.784-4.736 2.688-0.64 5.376-1.408 7.36-2.048 1.344-0.64 2.688-0.64 4.032-1.28 0.704 0 1.344-0.704 2.048-0.704 20.16-7.424 39.68-16.128 57.856-25.6 18.944-10.176 31.04-18.88 48.512-32.32 7.424-6.08 14.784-12.8 21.568-18.816 1.344-2.048 3.328-3.392 4.736-5.376 0.64 0 0.64-0.704 0.64-0.704 0.64 0 0.64-0.64 1.344-1.344 4.032-4.032 7.36-8 10.752-12.8 5.376-7.424 10.752-14.784 15.488-22.208 6.08-10.752 8.768-15.552 13.44-25.6 8.064-18.816 15.488-37.696 19.52-57.28v-1.344c0-1.344 0.64-3.328 0.64-4.672 0-4.032 0.64-8.064 0.64-12.096l2.048-21.568c2.112-12.096 11.52-22.272 27.712-22.272h85.504c-32.256-35.008-63.232-69.312-94.912-103.68-33.728-36.288-66.688-72.704-100.288-108.992-64.064 71.36-128.64 142.016-192.576 213.376zM702.016 766.016H960v-68.032h-257.984zM896 704h64v-768h-64zM64 0h832v-64H64zM64 320h64v-320H64z"  horiz-adv-x="1024" />

    
    <glyph glyph-name="strategy" unicode="&#59022;" d="M96.2 426.1h50v-50h-50v50zM263.9 684.5l-35.4 35.4-35.4-35.4 35.4-35.4 35.4 35.4zM537 826.9h-50v-50h50v50zM877.8 426.1v-50h50v50h-50zM827 409.9c0-135.4-118.3-225.5-185-339.8v-128.9h-260v128.9c-69 112-185 203.2-185 339.8 0 180.2 138.3 326.2 315 326.2s315-146.1 315-326.2zM592 47.5h-160v-56.3h160v56.3zM756.3 518.1c-13.3 33-32.3 62.5-56.6 87.8-49.6 51.7-116.3 80.2-187.7 80.2s-138.1-28.5-187.7-80.2c-24.2-25.3-43.3-54.8-56.6-87.8-13.7-34.1-20.7-70.6-20.7-108.2 0-35.1 9.5-69 30-106.6 19.7-36.2 46.7-70.7 75.3-107.2 24.5-31.3 49.9-63.7 71.5-98.6h63.2v196.6h-55v50h160v-50h-55v-196.7h63.2c22.4 37.9 49.3 72.6 75.3 106.1 27.6 35.6 53.7 69.2 72.7 104.1 19.6 36.1 28.8 68.6 28.8 102.2 0 37.7-7 74.2-20.7 108.3zM760.1 684.5l35.4-35.4 35.4 35.4-35.4 35.4-35.4-35.4z"  horiz-adv-x="1024" />

    
    <glyph glyph-name="chanpin" unicode="&#59105;" d="M1024 106.666667c0-129.6-105.045333-234.666667-234.666667-234.666667-129.6 0-234.666667 105.045333-234.666666 234.666667v170.645333A64 64 0 0 0 618.688 341.333333H789.333333c129.6 0 234.666667-105.045333 234.666667-234.666666z m-85.333333 0c0 82.304-66.858667 149.333333-149.333334 149.333333h-149.333333v-149.333333c0-82.304 66.858667-149.333333 149.333333-149.333334 82.304 0 149.333333 66.858667 149.333334 149.333334zM0 106.666667c0 129.621333 105.066667 234.666667 234.666667 234.666666h170.645333A64 64 0 0 0 469.333333 277.312V106.666667c0-129.621333-105.066667-234.666667-234.666666-234.666667-129.621333 0-234.666667 105.066667-234.666667 234.666667z m85.333333 0c0-82.474667 67.029333-149.333333 149.333334-149.333334 82.474667 0 149.333333 67.029333 149.333333 149.333334v149.333333h-149.333333c-82.474667 0-149.333333-67.029333-149.333334-149.333333z m938.666667 554.666666c0-129.621333-105.066667-234.666667-234.666667-234.666666h-170.645333A64 64 0 0 0 554.666667 490.688V661.333333c0 129.621333 105.066667 234.666667 234.666666 234.666667 129.621333 0 234.666667-105.066667 234.666667-234.666667z m-85.333333 0c0 82.474667-67.029333 149.333333-149.333334 149.333334-82.474667 0-149.333333-67.029333-149.333333-149.333334v-149.333333h149.333333c82.474667 0 149.333333 67.029333 149.333334 149.333333zM0 661.333333C0 790.933333 105.045333 896 234.666667 896c129.6 0 234.666667-105.045333 234.666666-234.666667v-170.645333A64 64 0 0 0 405.312 426.666667H234.666667C105.066667 426.666667 0 531.712 0 661.333333z m85.333333 0c0-82.304 66.858667-149.333333 149.333334-149.333333h149.333333v149.333333c0 82.304-66.858667 149.333333-149.333333 149.333334-82.304 0-149.333333-66.858667-149.333334-149.333334z"  horiz-adv-x="1024" />

    
    <glyph glyph-name="kongjianfenbuicon" unicode="&#59069;" d="M514.987505 889.91747c-132.115819 0-257.335033-50.641667-352.587037-142.596407C68.162219 656.349358 13.112254 534.616847 7.178204 404.257179a22.901645 22.901645 0 0 1-0.849916-3.834861 31.90768 31.90768 0 0 1 0.235519-8.995795c-0.0512-0.901115-0.112639-1.791991-0.179199-2.677747a106.679787 106.679787 0 0 1-0.358398-7.782361c0-280.641157 228.315018-508.956175 508.956175-508.956175C795.654262-127.99488 1023.99488 100.325258 1023.99488 380.961295c0 280.641157-228.340618 508.956175-509.007375 508.956175z m431.746961-508.945935a442.468188 442.468188 0 0 0-0.860155-27.519862c-1.213434 9.149394-1.93535 25.354113 0.568317 41.87627 0.199679-4.843496 0.291839-9.625552 0.291838-14.356408z m-431.746961-431.706001c-65.96063 0-130.170229 14.904245-188.676177 43.499302l81.648232 2.595827c73.860751-4.725736 108.860896 58.710746 116.924856 91.688502a39.316283 39.316283 0 0 1 0.501757 16.02552c-7.326683 40.570677 15.610802 58.951385 28.927855 66.027189 49.627912 0.803836 83.98294 11.443143 104.923636 32.475998 19.691422 19.768221 20.720536 41.072435 20.577177 47.190804a41.563952 41.563952 0 0 1-0.629757 5.96477c-6.640607 35.92686-24.171399 62.909125-52.146939 80.204399-20.495258 12.620737-45.680412 19.015585-74.828426 19.015585-3.96798 0-8.00764-0.112639-12.07802-0.358398-7.889881 24.529797-20.700056 43.98058-38.220609 57.94275-32.573277 26.00947-67.711661 21.98517-70.865565 21.539733a39.157564 39.157564 0 0 1-15.574962-5.437413 44.103459 44.103459 0 0 0-6.471648-3.368943c-12.180419 17.479593-36.321098 47.078165-70.466208 47.078164-3.640302 0-7.316443-0.348158-10.859465-1.039355-33.796951-6.446048-48.399118-39.029565-53.908211-56.652516-15.380403-15.713201-43.873061-18.145189-59.97538-18.14519a156.517617 156.517617 0 0 0-7.9206 0.194559c-27.335543 15.513522-76.799616 26.193789-119.408043 32.998235 24.00244 216.641477 209.099755 383.97248 428.582817 383.972481 108.953055 0 211.357663-40.207159 291.316303-113.801671-66.810546-27.576182-170.986665-87.874121-164.535497-194.09311l0.296958-2.319348c5.667812-29.619052 27.202424-80.900715 72.969876-100.561418-4.971495-79.835761 19.99862-134.189409 69.580452-150.383888 7.807961-3.522542 26.09651-10.470348 48.905995-10.470347 13.327293 0 26.173309 2.406388 38.195009 7.127004 32.870236 12.907455 57.205474 41.420593 72.319639 84.694617-10.716106-96.962075-53.790451-186.858586-123.949461-257.017595-81.648232-81.637992-190.01761-126.586247-305.155594-126.586247z m-301.540892 368.924875c32.696157 0 92.651057 7.152604 126.791046 54.942445a38.230849 38.230849 0 0 1 4.413418 8.04348c1.561592-2.119669 3.261424-4.541417 5.089254-7.301083 9.174994-13.486013 28.615537-27.883381 55.679722-27.883381 12.779456 0 25.93779 3.240944 39.178044 9.635792a23.879561 23.879561 0 0 0 9.026515-4.459498c9.108434-7.285724 15.359923-23.311243 17.581992-45.096734a38.466368 38.466368 0 0 1 16.788396-28.1189 38.819646 38.819646 0 0 1 32.301919-5.166054h0.020479c0.952315 0.271359 15.221684 4.03454 32.240479 4.03454 14.05945 0 25.799551-2.667507 33.94543-7.720922 3.96286-2.462708 9.185234-6.650847 13.035455-15.80536-6.599647-2.954225-20.459418-6.999005-46.939925-6.999005h-0.02048c-1.838071 0-3.727341 0.02048-5.667812 0.066559h-0.639996a39.116604 39.116604 0 0 1-13.465533-2.344948c-34.334548-12.523457-95.364643-58.685147-85.006935-144.598317-4.807656-12.165059-15.457203-28.692337-37.068615-26.884986l-1.044474 0.09728-188.988495-5.93405c-0.215039-0.01024-0.430078-0.01024-0.650237-0.03584-79.134324 74.382988-127.635842 176.377998-135.336284 283.84626 45.567772-8.023 76.374658-17.126314 81.940071-21.099414a38.742846 38.742846 0 0 1 20.438938-9.615312c1.90463-0.255999 12.06266-1.602552 26.357628-1.602552z m654.942005 33.018715c-5.089255-12.323778-13.194174-26.413948-24.836996-31.108965-3.271664-1.279994-6.758366-1.91999-10.270668-1.87903-8.642517 0-15.96408 3.235824-16.839596 3.645422a38.640447 38.640447 0 0 1-7.214044 2.882545c-19.266464 5.509092-21.037975 63.267524-13.777851 100.684297a38.461248 38.461248 0 0 1-8.698837 32.501597c-7.331803 8.534997-17.873831 13.424573-28.912495 13.424573-0.829436 0-1.648632-0.02048-2.12479-0.061439a29.091695 29.091695 0 0 0-1.336313-0.03072c-22.881166 0-33.428313 33.361753-35.8859 42.480427-2.211829 67.757741 105.046515 110.350808 143.359283 123.376023a427.502502 427.502502 0 0 0 65.576632-130.072949c-62.392008-40.898356-61.844171-123.872661-59.038425-155.841781zM554.431788 732.155699c-19.691422 17.704871-36.945735 25.523072-38.768446 26.326909a34.907985 34.907985 0 0 1-15.907761 3.025904c-21.91349-0.870396-40.688437-10.07099-54.302448-26.603387-23.224204-28.241779-24.611717-71.080605-22.732687-97.566232-16.803756-23.603082-23.98708-47.98952-21.340053-72.565397 4.377578-40.422198 33.766231-62.847686 36.858696-65.095354a35.010385 35.010385 0 0 1 17.761191-6.932446c5.319653-0.552957 10.869706-0.834556 16.481198-0.834556 61.731531 0 108.09802 36.838216 127.231363 101.068295 4.234219 14.228409 3.870701 34.104149-1.085434 59.089625-4.464618 22.277009-30.924645 68.111019-44.195619 80.086639zM494.620247 632.193319c-2.723826 17.602472-1.571832 42.961705 3.640302 54.210289 2.385908-1.730551 5.012455-3.783661 7.715801-6.164449 5.012455-6.01597 21.503892-34.744146 22.983565-41.97867 2.867186-14.678967 2.790386-23.224204 2.508788-25.456513-9.840591-32.552797-27.719541-48.445198-56.0586-49.704711-1.602552 2.585587-3.031025 5.790691-3.420143 9.364433-0.911355 8.453078 4.03966 19.164064 14.346168 30.996325a35.430223 35.430223 0 0 1 8.284119 28.733296z"  horiz-adv-x="1024" />

    
    <glyph glyph-name="favorite" unicode="&#58892;" d="M802.4-71.2c-7.2 0-15.2 1.6-21.6 4.8l-258.4 128.8-252.8-140c-18.4-10.4-41.6-5.6-56 9.6-8.8 9.6-12.8 23.2-11.2 36.8l43.2 285.6-212 197.6c-12.8 12-17.6 29.6-12 46.4 4.8 16.8 18.4 28.8 36 31.2l285.6 48 121.6 262.4c7.2 15.2 22.4 25.6 39.2 26.4 17.6 0.8 33.6-8.8 41.6-24l133.6-256.8 287.2-35.2c17.6-2.4 31.2-13.6 36.8-30.4 5.6-16 1.6-34.4-10.4-46.4l-202.4-207.2 55.2-284c2.4-12.8-0.8-26.4-8.8-36.8-8.8-10.4-21.6-16.8-34.4-16.8zM520.8 111.2c7.2 0 15.2-1.6 21.6-4.8l255.2-127.2-54.4 280c-3.2 14.4 1.6 29.6 12 40l200 203.2-283.2 35.2c-14.4 1.6-28 11.2-34.4 24l-131.2 252.8-120.8-258.4c-6.4-13.6-19.2-23.2-33.6-25.6l-281.6-46.4 208-194.4c11.2-10.4 16-24.8 13.6-40l-42.4-281.6 249.6 137.6c7.2 3.2 14.4 4.8 21.6 5.6z"  horiz-adv-x="1024" />

    
    <glyph glyph-name="jingzhengli" unicode="&#58945;" d="M240.1 239.5c-8.4 0-13.7 3.2-20.1 9.6-12.8 12.8-11.8 31.5 1 44.2l185.3 185.3c12.8 12.8 33.5 11.8 46.2-1 12.8-12.8 8.8-30.5-4-43.2L263.2 249.1c-6.4-6.4-14.7-9.6-23.1-9.6m0 0M530.2 328.2c-8.4 0-16.7 3.2-23.1 9.6L409 435.9c-12.8 12.8-10.9 29.3 2 42.2 15.5 15.5 31.5 9.8 44.2-3l98.1-98.1c12.8-12.8 12.8-26.5 0-39.2-6.3-6.4-14.7-9.6-23.1-9.6m0 0M532 328.2c-8.4 0-16.7 3.2-23.1 9.6-12.8 12.8-10.8 33.5 2 46.2l215.3 215.3c12.8 12.8 17.3 2.1 30-10.6 12.8-12.8 27-20.8 14.2-33.6L555.1 339.8c-6.4-6.4-14.7-11.6-23.1-11.6m0 0M799.8 485.4c-8.6 0-17 3.4-23.1 9.6L652.3 619.3c-7.4 7.4-10.8 17.9-9.2 28.3 1.6 10.3 8.2 19.3 17.5 24L912.5 799.1c12.5 6.4 27.8 4 37.9-6.1 10-10 12.5-25.3 6.1-37.9L829 503.3c-4.8-9.4-13.7-15.9-24-17.5-1.7-0.3-3.4-0.4-5.2-0.4m-89.3 150.8l83.1-83 85 168.1-168.1-85.1m20-2.5M750.7-34.7H162.1c-54.1 0-98.1 44-98.1 98.1V652c0 54.1 44 98.1 98.1 98.1h416.1c18.1 0 32.7-7.3 32.7-30.7 0-18.1-14.6-25.7-32.7-25.7H162.1c-18 0-40.7-23.7-40.7-41.7v-588.6c0-18 22.7-40.7 40.7-40.7h588.6c18 0 40.7 22.7 40.7 40.7V414.2c0 18.1 10.6 32.7 28.7 32.7s28.7-14.6 28.7-32.7v-350.8c0-54.1-44-98.1-98.1-98.1m0 0"  horiz-adv-x="1024" />

    
    <glyph glyph-name="web-icon-" unicode="&#59104;" d="M448 736h128v-32h-128zM400 656A16 16 0 0 1 416 672V768a16 16 0 0 1-32 0v-96a16 16 0 0 1 16-16zM624 656A16 16 0 0 1 640 672V768a16 16 0 0 1-32 0v-96a16 16 0 0 1 16-16zM781.248 717.248A63.68 63.68 0 0 1 736 736h-64v-32h64a31.904 31.904 0 0 0 32-32v-576a31.904 31.904 0 0 0-32-32H288a31.904 31.904 0 0 0-32 32V672a31.904 31.904 0 0 0 32 32h64V736H288a63.68 63.68 0 0 1-45.248-18.752A63.68 63.68 0 0 1 224 672v-576c0-16.384 6.24-32.768 18.752-45.248 12.48-12.512 28.864-18.752 45.248-18.752h448a63.68 63.68 0 0 1 45.248 18.752A63.68 63.68 0 0 1 800 96V672a63.68 63.68 0 0 1-18.752 45.248zM322.656 432.256c-7.488-7.488-8-19.136-1.12-26.016l108.608-108.608c6.944-6.944 16.544-11.232 27.168-11.232s20.192 4.288 27.168 11.232l217.216 217.216a19.232 19.232 0 0 1-27.168 27.168l-203.648-203.648a19.136 19.136 0 0 0-27.136 0l-95.04 95.04c-6.88 6.848-18.528 6.336-26.048-1.152z"  horiz-adv-x="1024" />

    
    <glyph glyph-name="fangxiang" unicode="&#58881;" d="M747.372 423.219L355.111 815.095c-21.655 21.657-56.784 21.657-78.442 0-21.711-21.654-21.711-56.731 0-78.386l352.987-352.687-352.987-352.74c-21.711-21.653-21.711-56.731 0-78.383 21.658-21.658 56.786-21.658 78.442 0l392.261 391.934c21.652 21.597 21.652 56.731 0 78.386z"  horiz-adv-x="1024" />

    
    <glyph glyph-name="shanchu" unicode="&#58924;" d="M818.687 692.007H626.024v37.077c0 17.213-14.05 31.175-31.395 31.175H429.512c-17.347 0-31.398-13.962-31.398-31.175v-37.077H206.522c-17.346 0-35.828-12.336-35.828-34.538 0-23.87 18.482-33.735 35.828-33.735h8.552v-568.742c0-27.413 15.543-46.74 47.096-46.74h498.732c32.22 0 47.096 12.603 47.096 46.74V623.734h10.689c17.347 0 35.272 8.64 35.272 33.068 0 25.496-17.925 35.205-35.272 35.205z m-78.495-615.972H283.903V623.756h456.29v-547.72z m-342.79 92.254c12.514 0 22.668 10.155 22.668 22.67V510.636c0 12.537-10.154 22.69-22.669 22.69-12.537 0-22.69-10.153-22.69-22.69v-319.677c0-12.515 10.154-22.67 22.69-22.67z m114.01 0c12.516 0 22.67 10.155 22.67 22.67V510.636c0 12.537-10.155 22.69-22.67 22.69-12.536 0-22.69-10.153-22.69-22.69v-319.677c0-12.515 10.154-22.67 22.69-22.67z m114.012 0c12.515 0 22.669 10.155 22.669 22.67V510.636c0 12.537-10.154 22.69-22.669 22.69-12.536 0-22.691-10.153-22.691-22.69v-319.677c0-12.515 10.155-22.67 22.691-22.67z"  horiz-adv-x="1024" />

    
    <glyph glyph-name="wenhao" unicode="&#58919;" d="M512 718.850664138794c186.56072616577146 0 334.8522090911865-148.29071044921875 334.8522090911865-334.85143661499023C846.8522090911866 197.43927383422852 698.5607261657715 49.14701843261719 512 49.14701843261719c-186.55995368957517 0-334.85143661499023 148.29225540161133-334.85143661499023 334.8522090911865 0 186.56072616577146 148.291482925415 334.85143661499023 334.85143661499023 334.85143661499023M512 779.5078125C294.470703125 779.5078125 116.4921875 601.529296875 116.4921875 384s177.978515625-395.5078125 395.5078125-395.5078125c217.53006935119632 0 395.5078125 177.978515625 395.5078125 395.5078125S729.529296875 779.5078125 512 779.5078125zM546.6077060699463 285.123046875v-14.830770492553713H477.39306640625v19.775390625c0 44.49462890625 19.776163101196286 84.04541015625 64.27001953125 118.65234375 44.49462890625 29.6630859375 64.27001953125 59.326944351196296 59.326171875 93.93387794494629-9.8876953125 34.60693359375-29.66231346130371 54.38155174255372-74.15771484375 59.326171875-54.38155174255372 0-88.9892578125-24.71923828125-98.876953125-84.04541015625l-69.2138671875 19.775390625C378.51611328125 586.69775390625 437.84228515625 631.1923828125 536.71923828125 626.24853515625c88.9892578125-4.94384765625 133.4846591949463-49.4384765625 143.3723545074463-128.5400390625 0-49.4384765625-29.6630859375-98.876953125-88.9892578125-143.37158203125-34.60770606994629-19.775390625-49.439249038696296-39.55078125-44.49462890625-69.2138671875zM462.5615234375 161.52685546875c0-27.3039436340332 22.134532928466797-49.4384765625 49.4384765625-49.4384765625 27.304716110229496 0 49.4384765625 22.134532928466797 49.4384765625 49.4384765625 0 27.304716110229496-22.133760452270504 49.4384765625-49.4384765625 49.4384765625-27.3039436340332 0-49.4384765625-22.134532928466797-49.4384765625-49.4384765625z"  horiz-adv-x="1024" />

    
    <glyph glyph-name="left1" unicode="&#58880;" d="M260.9365333333334 342.16640000000007l418.41173333333313-418.0010666666667c23.098666666666663-23.100800000000007 60.569599999999994-23.100800000000017 83.67146666666665-2.1316282072803006e-14 23.158400000000004 23.097599999999993 23.15840000000001 60.51306666666666 2.1316282072803006e-14 83.61173333333332l-376.5194666666666 376.1994666666668 376.5194666666668 376.256c23.158400000000004 23.096533333333326 23.15840000000001 60.51306666666666 2.1316282072803006e-14 83.60853333333333-23.101866666666655 23.101866666666673-60.57173333333333 23.10186666666668-83.67146666666665 2.1316282072803006e-14l-418.41173333333353-418.0629333333334c-23.095466666666677-23.036799999999992-23.09546666666668-60.51306666666666-2.1316282072803006e-14-83.61173333333332z"  horiz-adv-x="1024" />

    
    <glyph glyph-name="jiantouzuoshuang-" unicode="&#58889;" d="M521.2099999999999 410.98699999999997L215.79499999999985 716.3899999999999c-14.680000000000005 14.686999999999998-37.169 16.01099999999999-50.226 2.954999999999984-13.049999999999997-13.056000000000003-11.726999999999993-35.537 2.954000000000015-50.22399999999999L453.255 384.40200000000004l-287.68599999999986-287.67300000000006c-13.049999999999997-13.056000000000003-13.04999999999999-34.214 1.7763568394002505e-14-47.269999999999996 13.057-13.055999999999994 34.22200000000001-13.05599999999999 47.277 1.4210854715202004e-14L524.1650000000001 360.765c13.056999999999999 13.056000000000003 13.05699999999999 34.21900000000001-1.7763568394002505e-14 47.275000000000006-0.4740000000000001 0.4729999999999998-0.9590000000000003 0.9239999999999997-1.4530000000000003 1.3609999999999995-0.4850000000000002 0.5379999999999998-0.9830000000000002 1.0689999999999995-1.5020000000000004 1.5859999999999994z m337.216-2.9469999999998606c-0.47300000000000014 0.4729999999999997-0.9590000000000003 0.9239999999999997-1.4530000000000003 1.3609999999999995-0.4850000000000002 0.537-0.9830000000000002 1.0669999999999993-1.5010000000000003 1.5859999999999996L550.0559999999998 716.39c-14.680000000000005 14.686999999999998-37.17 16.01099999999998-50.225 2.954999999999984-13.049999999999997-13.056000000000003-11.726999999999993-35.537 2.9550000000000125-50.22399999999999l284.73000000000013-284.7189999999999-287.6849999999999-287.6730000000001c-13.049999999999997-13.056000000000003-13.04999999999999-34.214 1.7763568394002505e-14-47.269999999999996 13.055000000000003-13.055999999999996 34.221-13.05599999999999 47.277 1.4210854715202004e-14L858.4259999999999 360.7650000000002c13.055999999999996 13.056000000000001 13.05599999999999 34.219-1.7763568394002505e-14 47.275000000000006z"  horiz-adv-x="1024" />

    
    <glyph glyph-name="shezhi" unicode="&#58971;" d="M64 421.3c1.2 10 5.1 19.9 11.9 28.4 6.8 8.5 15.5 14.5 25.1 17.8l86.3 30.7c4.2 11.7 8.9 23.3 14.4 34.6l-39.3 82.8c-4.3 9.1-6.3 19.5-5.1 30.2s5.3 20.5 11.5 28.4l52.9 52.9c8 6.2 17.7 10.4 28.4 11.5s21.1-0.8 30.2-5.1l82.8-39.3c11.4 5.4 22.9 10.2 34.7 14.4l30.7 86.3c3.4 9.5 9.4 18.3 17.8 25.1 8.5 6.8 18.3 10.7 28.4 11.9h74.4c10-1.2 19.9-5.1 28.4-11.9 8.5-6.8 14.5-15.5 17.8-25.1l30.7-86.3c11.7-4.2 23.3-8.9 34.7-14.4l82.8 39.3c9.1 4.3 19.5 6.3 30.2 5.1 10.8-1.2 20.5-5.3 28.4-11.5l52.9-52.9c6.2-8 10.4-17.7 11.5-28.4s-0.8-21.1-5.1-30.2l-39.3-82.8c5.4-11.3 10.2-22.9 14.4-34.6l86.3-30.7c9.5-3.4 18.3-9.4 25.1-17.8s10.7-18.3 11.9-28.4v-74.5c-1.2-10-5.1-19.9-11.9-28.4-6.8-8.5-15.5-14.5-25.1-17.8l-86.3-30.7c-4.2-11.7-8.9-23.3-14.4-34.7l39.3-82.8c4.3-9.1 6.3-19.5 5.1-30.2-1.2-10.8-5.3-20.5-11.5-28.4l-52.9-52.9c-8-6.2-17.7-10.4-28.4-11.5-10.8-1.2-21.1 0.8-30.2 5.1l-82.8 39.3c-11.4-5.4-22.9-10.2-34.7-14.4L595.4-27c-3.4-9.5-9.4-18.3-17.8-25.1-8.5-6.8-18.3-10.7-28.4-11.9h-74.4c-10 1.2-19.9 5.1-28.4 11.9-8.5 6.8-14.5 15.5-17.8 25.1l-30.7 86.3c-11.7 4.2-23.3 8.9-34.7 14.4l-82.8-39.3c-9.1-4.3-19.5-6.3-30.2-5.1s-20.5 5.3-28.4 11.5l-52.9 52.9c-6.2 8-10.4 17.7-11.5 28.4-1.2 10.8 0.8 21.1 5.1 30.2l39.3 82.8c-5.4 11.4-10.2 22.9-14.4 34.7L101 300.6c-9.5 3.4-18.3 9.4-25.1 17.8-6.8 8.5-10.7 18.3-11.9 28.4v74.5z m56.1-6.6c-1.8-20.3-1.8-41.1 0-61.3l112.3-39.9 4.2-13.5c5.3-17.6 12.5-34.7 21.2-51.2l6.6-12.5-51.1-107.6c13.3-15.5 27.8-30.1 43.4-43.4l107.6 51.1 12.5-6.6c16.5-8.7 33.6-15.9 51.2-21.2l13.5-4.2 39.9-112.3c10.1-0.9 20.3-1.4 30.6-1.4s20.5 0.5 30.6 1.4l39.9 112.3 13.5 4.2c17.6 5.3 34.7 12.5 51.2 21.2l12.5 6.6 107.6-51.1c15.5 13.3 30.1 27.8 43.4 43.4l-51.1 107.6 6.6 12.5c8.7 16.5 15.9 33.6 21.2 51.2l4.2 13.5 112.3 39.9c1.8 20.2 1.8 41 0 61.3l-112.3 39.9-4.2 13.5c-5.3 17.5-12.5 34.7-21.2 51.1l-6.6 12.5 51.1 107.6c-13.3 15.5-27.8 30.1-43.4 43.4l-107.6-51.1-12.5 6.6c-16.5 8.7-33.6 15.9-51.2 21.2l-13.5 4.2-39.9 112.3c-10.1 0.9-20.3 1.4-30.6 1.4s-20.5-0.5-30.6-1.4l-39.9-112.3-13.5-4.2c-17.6-5.3-34.7-12.5-51.2-21.2l-12.5-6.6-107.6 51.1c-15.5-13.3-30.1-27.8-43.4-43.4l51.1-107.6-6.6-12.5c-8.7-16.4-15.9-33.6-21.2-51.1l-4.2-13.5-112.3-39.9zM512 510c69.5 0 126-56.5 126-126s-56.5-126-126-126-126 56.5-126 126 56.5 126 126 126m0 56c-100.5 0-182-81.5-182-182s81.5-182 182-182 182 81.5 182 182-81.5 182-182 182z"  horiz-adv-x="1024" />

    
    <glyph glyph-name="baogao" unicode="&#58887;" d="M14.2 890.5c0.6 0 1-0.5 1-1v-7.7c0-0.6-0.4-1-1-1H1.8c-0.6 0-1 0.5-1 1V889.5c0 0.6 0.4 1 1 1h12.4m0 0.5H1.8C1 891 0.3 890.3 0.3 889.5v-7.7c0-0.8 0.7-1.5 1.5-1.5h12.3c0.8 0 1.5 0.7 1.5 1.5V889.5c0.1 0.8-0.6 1.5-1.4 1.5zM6.5 885.9h3v-0.5h-3zM7.7 887.2h0.5v-3h-0.5zM9.2 892.9c0.3 0 0.5-0.2 0.5-0.5V891H6.2V892.4c0 0.3 0.2 0.5 0.5 0.5h2.5m0 0.5H6.7c-0.6 0-1-0.4-1-1v-1.9h4.5V892.4c0 0.5-0.4 1-1 1zM789.4 721.3c16.1 0 29.2-13.1 29.2-29.2v-697.4c0-16.1-13.1-29.2-29.2-29.2H234.6c-16.1 0-29.2 13.1-29.2 29.2V692.1c0 16.1 13.1 29.2 29.2 29.2h554.8m0 29.2H234.6c-32.1 0-58.4-26.3-58.4-58.4v-697.4c0-32.1 26.3-58.4 58.4-58.4h554.8c32.1 0 58.4 26.3 58.4 58.4V692.1c0 32.1-26.3 58.4-58.4 58.4zM570.4 783.2c16.1 0 29.2-13.1 29.2-29.2v-12.7c-2.7-0.3-6.8-0.6-13.3-0.6H437.7c-6.5 0-10.7 0.3-13.3 0.7V754c0 16.1 13.1 29.2 29.2 29.2h116.8m0 29.3H453.6c-32.1 0-58.4-26.3-58.4-58.4V738c0-23.4 19.1-26.4 42.5-26.4h148.6c23.5 0 42.5 2.9 42.5 26.4v16c0 32.2-26.2 58.5-58.4 58.5zM552.1 792.7h-79c-10.8 0-19.5 8.7-19.5 19.5s8.7 19.5 19.5 19.5h79c10.8 0 19.5-8.7 19.5-19.5 0-10.7-8.7-19.5-19.5-19.5zM278.3 619.1h467.4v-29.2H278.3zM278.3 268.5h467.4v-29.2H278.3zM278.3 531h467.4v-29.2H278.3zM279.2 443.8h467.4v-29.2H279.2zM278.3 357h467.4v-29.2H278.3zM278.3 180.89999999999998h276v-29.2h-276z"  horiz-adv-x="1024" />

    
    <glyph glyph-name="zonglan" unicode="&#59789;" d="M256 32V352H128v-320H64V384a32 32 0 0 0 32 32h192a32 32 0 0 0 32-32v-352H256z m320 0V544h-128v-512h-64V576a32 32 0 0 0 32 32h192a32 32 0 0 0 32-32v-544h-64z m320 0V736h-128v-704h-64V768a32 32 0 0 0 32 32h192a32 32 0 0 0 32-32v-736h-64zM0 32h1024v-64H0v64z"  horiz-adv-x="1024" />

    
    <glyph glyph-name="pingtaiyingyong" unicode="&#58978;" d="M981.534498 647.645553l-0.403282 2.01641c-0.403282 1.881982-0.940991 3.629537-1.747555 5.511519-0.134427 0.403282-0.268855 0.940991-0.537709 1.344273-0.940991 2.150837-2.01641 4.032819-3.226255 5.914802l-1.075419 1.4787c-1.075418 1.4787-2.150837 2.822973-3.49511 4.167246-0.403282 0.403282-0.806564 0.940991-1.209846 1.344274-1.613128 1.613128-3.360683 3.091828-5.242664 4.436101-0.268855 0.134427-0.672137 0.403282-0.940992 0.537709-1.209846 0.806564-2.419691 1.613128-3.763964 2.285264l-430.167378 215.083689c-11.426321 5.645947-24.734624 5.645947-36.026518 0l-430.167378-215.083689c-1.344273-0.672137-2.554119-1.4787-3.763964-2.285264-0.268855-0.134427-0.672137-0.403282-0.940991-0.537709-1.881982-1.344273-3.629537-2.822973-5.242665-4.436101-0.403282-0.403282-0.806564-0.806564-1.209846-1.344274-1.209846-1.344273-2.419691-2.688546-3.49511-4.167246l-1.075418-1.4787c-1.209846-1.881982-2.285264-3.898392-3.226256-5.914802-0.134427-0.403282-0.268855-0.940991-0.537709-1.344273-0.672137-1.747555-1.209846-3.629537-1.747555-5.511519l-0.403282-2.01641c-0.403282-2.419691-0.672137-4.839383-0.672136-7.259074v-512.974598c0-15.324713 8.603348-29.170725 22.314932-36.026518l430.167378-215.083689c0.268855-0.134427 0.672137-0.268855 1.075419-0.403282 1.881982-0.940991 4.032819-1.613128 6.049228-2.150837 0.806564-0.268855 1.4787-0.537709 2.285265-0.672137 2.822973-0.672137 5.780374-1.075418 8.737774-1.075418s5.914801 0.403282 8.737775 1.075418c0.806564 0.134427 1.4787 0.537709 2.285265 0.672137 2.150837 0.537709 4.167246 1.344273 6.049228 2.150837 0.268855 0.134427 0.672137 0.268855 1.075419 0.403282l430.167377 215.083689a40.328192 40.328192 0 0 1 22.314933 36.026518V640.386479c-0.268855 2.419691-0.537709 4.839383-0.940991 7.259074zM511.711065 810.43702L851.677721 640.386479l-123.135412-61.567706-199.08684 97.728651c-0.268855 0.134427-0.672137 0.134427-0.940991 0.268854-1.747555 0.806564-3.629537 1.4787-5.511519 2.01641-0.806564 0.268855-1.613128 0.537709-2.554119 0.806564a45.705284 45.705284 0 0 1-6.183656 0.806564c-0.806564 0-1.613128 0.268855-2.419692 0.268854h-0.268854c-5.780374 0-11.291894-1.209846-16.265704-3.49511-0.134427 0-0.268855-0.134427-0.403282-0.134427L287.351892 582.582737 171.744409 640.386479 511.711065 810.43702z m0-596.453955l-139.132261 69.498917 138.728979 77.967837 136.443715-79.446537L511.711065 213.983065zM688.482972 508.647719v-157.14552L552.039257 431.083164V575.592517l136.443715-66.944798zM471.382873 431.486446l-144.509353-81.194093V511.873974L471.382873 577.743354v-146.256908zM121.871879 383.89918V575.189235l124.345258-62.239842V281.465573c0-0.672137 0.134427-1.344273 0.268854-2.150837l0.403282-4.301674 0.806564-3.898392c0.268855-1.209846 0.672137-2.419691 1.075418-3.629537 0.537709-1.344273 1.075418-2.688546 1.747555-4.032819 0.268855-0.672137 0.537709-1.209846 0.806564-1.881983 0.134427-0.403282 0.537709-0.537709 0.672137-0.940991 1.613128-2.822973 3.49511-5.377092 5.780374-7.662356l0.403282-0.403282a42.075747 42.075747 0 0 1 9.678766-6.99022c0.537709-0.268855 0.940991-0.537709 1.4787-0.806564 0.403282-0.134427 0.672137-0.403282 0.940991-0.672136L471.382873 143.946439V-22.340138l-349.510994 174.755497V383.89918zM901.550251 152.415359l-349.510994-174.755497V143.946439l194.785166 97.325369a40.287863 40.287863 0 0 1 22.180505 38.849492c0 0.403282 0.134427 0.806564 0.134427 1.209845V508.916574L901.550251 575.189235V152.415359z"  horiz-adv-x="1024" />

    
    <glyph glyph-name="zhenduanyouhua" unicode="&#59052;" d="M795.723021 44.35643a481.246246 481.246246 0 0 0-312.606329-114.808633c-163.972794-0.038968-316.731902 83.247849-405.53114 221.098342a43.176135 43.176135 0 0 0-5.775202 33.991764 43.211106 43.211106 0 0 0 20.947599 27.391247c19.097137 10.399362 43.592789 5.228657 55.30506-13.073141C220.927483 84.334222 347.295514 14.879915 483.116692 14.80198c119.519719 0.165862 232.653743 53.958179 308.222971 146.551265 75.569227 92.596084 105.592288 214.215059 81.798053 331.335771C841.762778 652.518252 709.785407 779.267965 549.048925 805.185436c-164.792113 27.50815-329.214533-50.867746-411.618084-196.202022-11.638332-19.589728-36.769457-26.347114-56.661933-15.236343-20.352094 11.086791-28.986922 36.945311-17.56441 57.009644C163.767964 828.675924 365.470417 923.996744 566.784193 888.736034 774.296819 853.894975 937.820986 680.881691 962.713309 471.948245c16.627188-134.071632-23.720296-268.968577-111.230605-371.891084a56.666929 56.666929 0 0 0 41.265722-16.651168l113.675574-113.676573a56.837787 56.837787 0 1 0-80.372238-80.367242l-113.671577 113.675574a56.675921 56.675921 0 0 0-16.657164 41.265722v0.052956zM0 384.247095c0 23.701312 19.097137 42.627591 42.626592 42.627591h158.348465l101.970297 203.76374a42.624593 42.624593 0 0 0 75.134589 2.099257L565.929902 304.050711l78.039176 156.074355a42.627591 42.627591 0 0 0 38.081367 23.588406h56.83379c23.544442 0 42.632587-19.089143 42.632587-42.62859 0-23.543443-19.088144-42.631587-42.632587-42.631588h-30.461696L606.512192 194.694549a42.623594 42.623594 0 0 0-75.139584-2.102253l-187.843965 328.690968-78.039176-156.079351a42.627591 42.627591 0 0 0-38.136321-23.582411H42.739498C19.205047 341.679454 0.126895 360.712644 0 384.247095z m0 0"  horiz-adv-x="1024" />

    
    <glyph glyph-name="shumogongjuicon-" unicode="&#58925;" d="M1010.8928 856.9856a36.7104 36.7104 0 0 1-42.9056 6.7072L680.96 720.896a37.376 37.376 0 0 1-20.1216-26.8288 34.9696 34.9696 0 0 1 10.752-31.5392l48.2816-47.616-195.1744-191.7952L439.5008 506.88a37.6832 37.6832 0 0 1-52.3264 0L176.64 299.7248a35.84 35.84 0 0 1 0-51.6608 37.2224 37.2224 0 0 1 52.3264 0l184.32 181.76 85.1456-84.48a37.2224 37.2224 0 0 1 52.3264 0L772.1472 563.2l40.96-40.2432a38.2464 38.2464 0 0 1 26.1632-10.752 18.5856 18.5856 0 0 1 6.0416 0.6656 38.144 38.144 0 0 1 27.4944 19.456l144.8448 282.3168a35.84 35.84 0 0 1-6.7584 42.3424z m-181.76-246.1184l-69.0688 67.7376 139.52 69.7856zM880.64 469.4016c-20.7872 0-44.1856-16.0768-44.1856-36.864v-408.32a37.2224 37.2224 0 0 0-36.864-36.864h-670.72a36.352 36.352 0 0 0-36.864 36.864V704.512a37.2224 37.2224 0 0 0 36.864 36.864h458.0864c20.7872 0 37.5808 26.2656 37.5808 47.0528s-17.4592 42.0864-37.5808 42.0864H113.6128A110.336 110.336 0 0 1 2.2528 720.5376V10.24a111.2064 111.2064 0 0 1 111.36-110.08h700.0064a110.7456 110.7456 0 0 1 111.3088 110.08V432.4864c0.6656 20.7872-24.1664 36.9152-44.288 36.9152z"  horiz-adv-x="1024" />

    
    <glyph glyph-name="xinjianwendang" unicode="&#59089;" d="M983.243781 131.820896H815.124378v168.119403c0 15.283582-15.283582 30.567164-30.567164 30.567164s-30.567164-15.283582-30.567164-30.567164V131.820896h-168.119403c-15.283582 0-30.567164-15.283582-30.567164-30.567165s15.283582-30.567164 30.567164-30.567164h168.119403v-168.119403c0-15.283582 15.283582-30.567164 30.567164-30.567164s30.567164 15.283582 30.567164 30.567164v168.119403h168.119403c15.283582 0 30.567164 15.283582 30.567164 30.567164-5.094527 20.378109-15.283582 30.567164-30.567164 30.567165zM529.830846-61.771144H137.552239c-20.378109 0-35.661692 15.283582-35.661692 35.661691V799.20398c0 20.378109 15.283582 35.661692 35.661692 35.661692h703.044776c20.378109 0 35.661692-15.283582 35.661691-35.661692v-433.034826c0-15.283582 15.283582-30.567164 30.567165-30.567164s30.567164 15.283582 30.567164 30.567164V814.487562c0 45.850746-35.661692 81.512438-81.512438 81.512438H127.363184C81.512438 896 45.850746 860.338308 45.850746 814.487562v-850.786069c0-45.850746 35.661692-81.512438 81.512438-81.512438h402.467662c15.283582 0 30.567164 15.283582 30.567164 30.567164s-15.283582 25.472637-30.567164 25.472637zM718.328358 702.40796h-458.507462c-15.283582 0-30.567164-15.283582-30.567165-30.567164 5.094527-15.283582 15.283582-30.567164 30.567165-30.567164h458.507462c15.283582 0 30.567164 15.283582 30.567164 30.567164s-15.283582 30.567164-30.567164 30.567164z m30.567164-229.253731c0 15.283582-15.283582 30.567164-30.567164 30.567164h-458.507462c-15.283582 0-25.472637-15.283582-25.472637-30.567164s15.283582-30.567164 30.567164-30.567164h458.507463c10.189055 0 25.472637 15.283582 25.472636 30.567164z m-489.074626-168.119403c-15.283582 0-30.567164-15.283582-30.567165-30.567164s15.283582-30.567164 30.567165-30.567164H509.452736c15.283582 0 30.567164 15.283582 30.567164 30.567164s-15.283582 30.567164-30.567164 30.567164H259.820896z"  horiz-adv-x="1054" />

    
    <glyph glyph-name="tupian" unicode="&#59281;" d="M288 416c54.4 0 96 41.6 96 96s-41.6 96-96 96-96-41.6-96-96 41.6-96 96-96z m0 128c19.2 0 32-12.8 32-32s-12.8-32-32-32-32 12.8-32 32 12.8 32 32 32zM864 736h-704c-54.4 0-96-41.6-96-96v-512c0-54.4 41.6-96 96-96h704c54.4 0 96 41.6 96 96v512c0 54.4-41.6 96-96 96z m-736-608v512c0 19.2 12.8 32 32 32h704c19.2 0 32-12.8 32-32v-364.8l-169.6 169.6c-38.4 38.4-99.2 38.4-134.4 0l-348.8-348.8h-83.2c-19.2 0-32 12.8-32 32z m736-32h-531.2l304 304c12.8 12.8 32 12.8 44.8 0l214.4-214.4v-57.6c0-19.2-12.8-32-32-32z"  horiz-adv-x="1024" />

    
    <glyph glyph-name="caozuo" unicode="&#58951;" d="M512 834c27 0 45-18 45-45v-810c0-27-18-45-45-45s-45 18-45 45V789c0 27 18 45 45 45zM962 384c0-27-18-45-45-45H107c-27 0-45 18-45 45s18 45 45 45h810c27 0 45-18 45-45z"  horiz-adv-x="1024" />

    
    <glyph glyph-name="yonghu" unicode="&#58890;" d="M640.846 259.286c79.57 46.115 133.096 132.191 133.096 230.776 0 147.21-119.337 266.547-266.546 266.547-147.21 0-266.547-119.337-266.547-266.547 0-100.186 55.284-187.447 137-232.983-134.462-53.449-229.523-184.75-229.523-338.256 0-19.99 16.205-36.195 36.195-36.195s36.195 16.205 36.195 36.195h0.005c0.195 160.943 130.721 291.356 291.711 291.356 159.19 0 288.575-127.519 291.635-285.977a36.558 36.558 0 0 1-0.4-5.379c0-19.99 16.205-36.195 36.195-36.195s36.195 16.205 36.195 36.195c0 155.662-97.748 288.492-235.21 340.463z m-133.45 35.653c-107.762 0-195.12 87.36-195.12 195.123 0 107.762 87.358 195.12 195.12 195.12s195.119-87.358 195.119-195.12-87.357-195.123-195.119-195.123z"  horiz-adv-x="1024" />

    
    <glyph glyph-name="icon--" unicode="&#59197;" d="M652.8 61.44c15.36 0 25.6 10.24 25.6 25.6v307.2c0 15.36-10.24 25.6-25.6 25.6s-25.6-10.24-25.6-25.6v-307.2c0-12.8 10.24-25.6 25.6-25.6z m-128 0c15.36 0 25.6 10.24 25.6 25.6v307.2c0 15.36-10.24 25.6-25.6 25.6s-25.6-10.24-25.6-25.6v-307.2c0-12.8 10.24-25.6 25.6-25.6z m281.6 614.4h-153.6v51.2c0 28.16-23.04 51.2-51.2 51.2h-153.6c-28.16 0-51.2-23.04-51.2-51.2v-51.2h-153.6c-28.16 0-51.2-23.04-51.2-51.2v-51.2c0-28.16 23.04-51.2 51.2-51.2v-460.8c0-56.32 46.08-102.4 102.4-102.4h358.4c56.32 0 102.4 46.08 102.4 102.4v460.8c28.16 0 51.2 23.04 51.2 51.2v51.2c0 28.16-23.04 51.2-51.2 51.2z m-358.4 25.6c0 15.36 10.24 25.6 25.6 25.6h102.4c15.36 0 25.6-10.24 25.6-25.6v-25.6h-153.6v25.6z m307.2-640c0-28.16-23.04-51.2-51.2-51.2h-358.4c-28.16 0-51.2 23.04-51.2 51.2v460.8h460.8v-460.8z m25.6 512h-512c-15.36 0-25.6 10.24-25.6 25.6s10.24 25.6 25.6 25.6h512c15.36 0 25.6-10.24 25.6-25.6 0-12.8-10.24-25.6-25.6-25.6z m-384-512c15.36 0 25.6 10.24 25.6 25.6v307.2c0 15.36-10.24 25.6-25.6 25.6s-25.6-10.24-25.6-25.6v-307.2c0-12.8 10.24-25.6 25.6-25.6z"  horiz-adv-x="1024" />

    
    <glyph glyph-name="icon-" unicode="&#58885;" d="M808.96 583.68H294.4c-12.8 0-20.48 10.24-20.48 20.48 0 12.8 10.24 20.48 20.48 20.48h514.56c12.8 0 20.48-10.24 20.48-20.48s-7.68-20.48-20.48-20.48zM204.8 583.68h-5.12c-12.8 0-20.48 10.24-20.48 20.48 0 12.8 10.24 20.48 20.48 20.48H204.8c12.8 0 20.48-10.24 20.48-20.48s-7.68-20.48-20.48-20.48zM207.36 337.92h-5.12c-12.8 0-20.48 10.24-20.48 20.48 0 12.8 10.24 20.48 20.48 20.48h5.12c12.8 0 20.48-10.24 20.48-20.48 0-12.8-10.24-20.48-20.48-20.48zM209.92 89.6H204.8c-12.8 0-20.48 10.24-20.48 20.48 0 12.8 10.24 20.48 20.48 20.48h5.12c12.8 0 20.48-10.24 20.48-20.48s-10.24-20.48-20.48-20.48zM808.96 337.92H294.4c-12.8 0-20.48 10.24-20.48 20.48 0 12.8 10.24 20.48 20.48 20.48h514.56c12.8 0 20.48-10.24 20.48-20.48 0-12.8-7.68-20.48-20.48-20.48zM808.96 89.6H294.4c-12.8 0-20.48 10.24-20.48 20.48 0 12.8 10.24 20.48 20.48 20.48h514.56c12.8 0 20.48-10.24 20.48-20.48s-7.68-20.48-20.48-20.48z"  horiz-adv-x="1024" />

    
    <glyph glyph-name="xingzhuang60kaobei2" unicode="&#58888;" d="M1077.529145 507.793752C1072.06379 524.466544 1056.511742 535.673981 1039.008769 535.673981L686.956883 535.673981 578.161726 868.175116C572.876243 884.792563 557.37954 896 539.765877 896 522.262904 896 506.710856 884.792563 501.370028 868.299643L392.450343 535.673981 40.467639 535.673981C22.909321 535.673981 7.398781 524.466544 2.002608 507.793752-3.462747 491.286996 2.528389 473.036861 16.682967 462.880986L301.504067 257.46665199999995 192.764255-75.21435499999995C187.243555-91.77645700000005 193.234691-109.86055599999997 207.444614-120.12712099999999 221.474665-130.338342 240.845544-130.338342 254.944776-120.12712099999999L539.765877 85.41173900000001 824.642322-120.12712099999999C831.629675-125.19122300000004 839.972989-127.82012799999995 848.371649-127.82012799999995 856.701127-127.82012799999995 865.099787-125.19122300000004 872.142485-120.12712099999999 886.297062-109.86055599999997 892.288199-91.77645700000005 886.767498-75.21435499999995L778.138377 257.46665199999995 1062.793441 462.880986C1076.934183 473.036861 1082.869974 491.286996 1077.529145 507.793752Z"  horiz-adv-x="1080" />

    
    <glyph glyph-name="guanjianci1" unicode="&#59289;" d="M1006.08-76.8c-9.728 9.728-52.224 52.736-126.976 126.976l-72.192 72.192 6.144 7.168c48.64 56.832 82.944 124.416 99.328 195.584 44.032 189.952-36.864 388.608-200.704 493.568-161.792 103.936-373.76 96.256-527.36-19.968-155.136-117.248-221.184-320.512-163.84-506.368 56.832-184.32 231.936-317.952 424.96-325.12 14.336-0.512 26.624 10.752 27.136 25.6 0.512 14.336-10.752 26.624-25.6 27.136-171.008 6.144-326.144 124.416-376.32 287.744-50.688 164.352 7.168 344.576 144.896 448.512 134.144 100.864 326.144 108.032 466.944 17.408 145.408-93.184 216.576-269.312 177.664-437.248-24.064-102.912-88.576-194.56-178.176-251.904-6.144-3.584-10.24-9.728-11.776-16.384-1.536-6.656 0-13.824 3.584-19.968 3.584-6.144 9.728-10.24 16.384-11.776 6.656-1.536 13.824 0 19.968 3.584 15.36 9.728 31.232 21.504 50.688 38.4l7.168 6.144 199.68-199.68c9.728-9.728 27.648-9.728 37.376 0 5.12 5.12 7.68 11.776 7.68 18.432 1.024 8.704-1.536 14.848-6.656 19.968zM579.584-23.552c3.584 1.024 6.144 1.536 8.704 2.56 4.096 1.024 6.144 1.536 8.704 2.56 17.408 5.12 27.648 24.064 22.016 41.472-4.096 14.336-17.408 23.552-31.744 23.552-3.072 0-6.656-0.512-9.728-1.536l-2.048-0.512c-1.536-0.512-3.072-1.024-5.632-1.536-2.048-0.512-4.096-1.024-7.168-2.048-17.92-4.608-28.16-23.04-23.552-40.448 4.608-17.92 22.528-28.672 40.448-24.064zM313.344 229.888c10.24 10.24 27.136 23.04 49.664 37.888 7.68 5.632 13.824 9.728 17.92 12.288-4.608 16.384-8.192 32.256-10.24 47.616l-48.128-36.352v204.8h-90.112v-42.496h45.568v-169.472c1.024-19.456-4.608-33.28-16.384-42.496l27.136-35.328c7.168 7.68 15.36 15.36 24.576 23.552zM376.32 538.112h224.256v-38.4h-224.256zM310.784 549.888l39.424 25.6c-6.656 7.68-16.896 20.48-31.232 38.912l-33.792 39.424-37.376-22.016c8.192-10.24 18.432-23.552 29.184-38.4 14.336-18.432 25.6-32.768 33.792-43.52zM679.936 258.56v378.368h-291.84v-40.448h245.248v-319.488c1.536-10.752-1.024-19.456-6.656-25.6-6.656-6.656-17.408-9.216-32.768-7.68h-60.416c4.096-17.92 7.168-32.768 8.704-44.544h75.776c23.04 0 39.936 5.632 49.664 16.384 9.216 9.216 13.312 24.064 12.288 43.008zM398.336 441.344v-161.28H573.44v161.28h-175.104z m134.144-124.416h-93.696V404.48H532.48v-87.552z"  horiz-adv-x="1024" />

    
    <glyph glyph-name="shanchu2" unicode="&#58893;" d="M796.69248 771.76248889H228.864c-52.27747555 0-94.63808-42.35719111-94.63808-94.63466667v-31.54488888h757.10236445V677.12782222c0.00113778 52.27747555-42.35832889 94.63466667-94.63694223 94.63466668m-165.30773333 63.08977777l13.92412444-99.56352H380.24874667l13.92298666 99.56352h237.21301334m7.5776 63.08977778H386.59754667c-26.03235555 0-50.24654222-21.07164445-53.88174222-46.88668444L314.26218667 719.0549333399999c-3.60448-25.78204445 14.75697778-46.85482667 40.78933333-46.85482667h315.45799111c26.03121778 0 44.39267555 21.07050667 40.75861334 46.88554667l-18.45475556 132.00156445c-3.60675555 25.78432-27.81980445 46.85482667-53.85102222 46.85482666m173.50314666-315.44661332H213.09212445c-34.68856889 0-60.53546667-28.27946667-57.39292445-62.84288001l51.69493333-568.29610667c3.11068445-34.56455111 34.10261333-62.84288 68.79004445-62.84288h473.1904c34.68743111 0 65.67936 28.28060445 68.79004444 62.84288l51.69379556 568.29724444c3.14140445 34.56227555-22.70549333 62.84174222-57.39292445 62.84174224M386.59413333 14.690844459999994h-94.63808l-31.54602666 441.62503111H386.59413333V14.690844459999994z m189.27616 0H449.68732445V456.31587557h126.18410666V14.690844459999994z m157.72899556 0h-94.63808V456.31587557H765.14417778L733.60042667 14.690844459999994z"  horiz-adv-x="1024" />

    
    <glyph glyph-name="mima" unicode="&#58941;" d="M156.233143 546.669714C156.233143 739.279238 312.953905 896 505.563429 896c192.609524 0 349.330286-156.720762 349.330285-349.330286a26.819048 26.819048 0 1 0-53.784381 0 295.936 295.936 0 0 1-295.545904 295.594667 295.936 295.936 0 0 1-295.594667-295.594667v-134.339047h644.924952c59.245714 0 107.471238-48.225524 107.471238-107.471238v-322.462477a107.568762 107.568762 0 0 0-107.471238-107.471238H156.233143A107.568762 107.568762 0 0 0 48.761905-17.603048v322.462477C48.761905 364.105143 96.987429 412.281905 156.233143 412.281905V546.669714z m698.660571-188.074666H156.233143c-29.647238 0-53.735619-24.137143-53.735619-53.735619v-322.462477c0-29.647238 24.137143-53.735619 53.735619-53.735619h698.660571c29.598476 0 53.735619 24.088381 53.735619 53.735619v322.462477c0 29.598476-24.088381 53.686857-53.735619 53.735619z m-376.198095-207.725715a53.686857 53.686857 0 1 0 53.735619 0v-87.868952a26.86781 26.86781 0 0 0-53.735619 0v87.82019z"  horiz-adv-x="1024" />

    
    <glyph glyph-name="bianji" unicode="&#58891;" d="M562.5 722.6l113.2-81.4-283-404.3h-0.2l-4.7-2.1L261.2 179l15.4 130.4 0.4 3.5v1c0.3 0.7 0.6 1.6 0.9 2.2l284.6 406.5m-1.2 61.4c-17.7 0-35.1-7.9-45.2-23.1L227.9 349.2c-5.5-8.2-11-22-11-32.9l-17.3-146.5c0-32.2 27-54.8 55.1-54.8 5.4 0 10.9 0.8 16.2 2.6l141 62.1c11 2.7 22 11 27.4 19.2l288.2 411.7c16.5 24.7 11 57.6-13.7 76.9l-121 87c-9.3 6.4-20.4 9.5-31.5 9.5zM200 44h640v-60H200z"  horiz-adv-x="1024" />

    


  </font>
</defs>
</svg>
